<?xml version="1.0" encoding="UTF-8"?>
<svg width="110px" height="110px" viewBox="0 0 110 110" version="1.1" xmlns="http://www.w3.org/2000/svg" xmlns:xlink="http://www.w3.org/1999/xlink">
    <!-- Generator: Sketch 49.3 (51167) - http://www.bohemiancoding.com/sketch -->
    <title>Group 9</title>
    <desc>Created with Sketch.</desc>
    <defs></defs>
    <g id="Page-1" stroke="none" stroke-width="1" fill="none" fill-rule="evenodd">
        <g id="Group-9">
            <g id="Group-8">
                <rect id="Rectangle-2" stroke="#1DBC9C" stroke-width="6" x="3" y="3" width="104" height="104" rx="16"></rect>
                <path d="M19.9047619,30.0478713 L36.0255819,55.5238095 C44.5994293,51.393208 51.171735,49.3279073 55.7424991,49.3279073 C60.3132633,49.3279073 66.1389629,51.393208 73.2195981,55.5238095 L91.1428571,30.0478713 C76.3767411,20.4921476 64.5766218,15.7142857 55.7424991,15.7142857 C46.9083765,15.7142857 34.9624641,20.4921476 19.9047619,30.0478713 Z" id="Path-4" fill="#1DBC9C"></path>
                <path d="M56.047619,29.3333333 L64.952381,48.1904762 C61.1956005,46.9701554 58.2273465,46.3599951 56.047619,46.3599951 C53.8678916,46.3599951 50.8996376,46.9701554 47.1428571,48.1904762 L56.047619,29.3333333 Z" id="Triangle" stroke="#1DBC9C" stroke-width="5" fill="#FFFFFF"></path>
                <rect id="Rectangle-3" fill="#1DBC9C" x="36.6666667" y="63.9047619" width="36.6666667" height="5.23809524" rx="2.61904762"></rect>
                <rect id="Rectangle-3" fill="#1DBC9C" x="39.8095238" y="76.4761905" width="30.3809524" height="5.23809524" rx="2.61904762"></rect>
                <rect id="Rectangle-3" fill="#1DBC9C" x="42.952381" y="89.047619" width="24.0952381" height="5.23809524" rx="2.61904762"></rect>
            </g>
            <path d="M29,39.171386 C47.2780641,26.9428713 65.0213368,26.9428713 82.2298182,39.171386" id="Path-8" stroke="#FFFFFF" stroke-width="3"></path>
            <path d="M27,35 L29.9139116,39.0631416" id="Line" stroke="#FFFFFF" stroke-width="2" stroke-linecap="square"></path>
            <path d="M56,23 L56,29" id="Line" stroke="#FFFFFF" stroke-width="2" stroke-linecap="square"></path>
            <path d="M74.6832816,28 L72,33.3665631" id="Line" stroke="#FFFFFF" stroke-width="2" stroke-linecap="square"></path>
            <path d="M38,27 L39.9695965,31.5957252" id="Line" stroke="#FFFFFF" stroke-width="2" stroke-linecap="square"></path>
            <path d="M84.0697031,35 L81,38.9467611" id="Line" stroke="#FFFFFF" stroke-width="2" stroke-linecap="square"></path>
        </g>
    </g>
</svg>